<?xml version="1.0" encoding="utf-8"?>
<!-- Generator: Adobe Illustrator 24.3.0, SVG Export Plug-In . SVG Version: 6.00 Build 0)  -->
<svg version="1.1" id="Layer_1" xmlns="http://www.w3.org/2000/svg" xmlns:xlink="http://www.w3.org/1999/xlink" x="0px" y="0px"
	 viewBox="0 0 8866.1 1258.4" style="enable-background:new 0 0 8866.1 1258.4;" xml:space="preserve">
<style type="text/css">
	.st0{opacity:0.25;}
	.st1{clip-path:url(#SVGID_2_);}
	.st2{fill:none;stroke:#FFFFFF;stroke-width:25;stroke-miterlimit:10;}
	.st3{fill:none;stroke:#FFFFFF;stroke-width:15;stroke-miterlimit:10;}
	.st4{fill:none;stroke:#FFFFFF;stroke-width:5;stroke-miterlimit:10;}
	.st5{clip-path:url(#SVGID_4_);}
</style>
<g class="st0">
	<g>
		<defs>
			<rect id="SVGID_1_" x="4217.4" width="4648.7" height="1258.4"/>
		</defs>
		<clipPath id="SVGID_2_">
			<use xlink:href="#SVGID_1_"  style="overflow:visible;"/>
		</clipPath>
		<g class="st1">
			<path class="st2" d="M8548.7,1033.1l-79.8,120c-31.7,47.7-79.1,28.2-97-39.8l-175.9-668.9c-23.2-88.1-90.9-88.1-114.1,0
				l-160,608.5c-18.8,71.3-69.5,88.4-100.7,33.9l-276.4-484.3c-24.5-42.9-62.8-42.9-87.2,0l-181.5,318.1
				c-32.7,57.3-86.4,35-102.7-42.7l-67.4-320.5c-18.9-89.7-84.8-101.6-112.7-20.3l0,0c-23.1,67.5-75.1,73.5-102.5,11.8l-185.9-417.7
				c-25.4-57-72.6-57-97.9,0l-471.2,1058.7c-22.5,50.6-63.1,57.3-90.1,14.8l-106-166.9c-23.7-37.3-58.5-37.3-82.2,0l-67.6,106.4
				c-30,47.3-75.8,33-95.8-29.9l-292.3-920.7c-24.5-77.2-84.9-77.2-109.4,0l-148,466.3c-22,69.4-74.4,78.1-102.8,17.1l-59.3-127.5
				c-25.3-54.4-70.8-54.4-96.1,0l-352,756.4c-35.4,76.1-6.2,194.1,48.1,194.1h295.4h547h139.4h252.6h181.2H6233h451h261.3h368.5
				h39.4h451h252.6H8238h235.4h287c59.7,0,86.4-138.9,40-208.6l-171.8-258.2C8605.3,998,8572,998,8548.7,1033.1z"/>
			<path class="st3" d="M8540.9,1020l-82.1,123.4c-32.6,49-81.4,29-99.7-40.9l-180.8-687.6c-23.8-90.5-93.5-90.5-117.3,0
				l-164.5,625.6c-19.3,73.3-71.5,90.9-103.5,34.8l-284.1-497.9c-25.1-44.1-64.5-44.1-89.7,0l-186.6,327
				c-33.6,58.9-88.8,36-105.6-43.9L7057.7,531c-19.4-92.3-87.2-104.5-115.9-20.9v0c-23.8,69.4-77.2,75.5-105.4,12.1L6645.4,92.9
				c-26.1-58.6-74.6-58.6-100.7,0l-484.3,1088.3c-23.2,52-64.9,58.9-92.6,15.2l-109-171.6c-24.4-38.4-60.2-38.4-84.5,0l-69.5,109.4
				c-30.9,48.6-77.9,33.9-98.5-30.8l-300.5-946.5c-25.2-79.4-87.2-79.4-112.5,0l-152.2,479.3c-22.6,71.3-76.5,80.3-105.6,17.6
				l-61-131.1c-26-55.9-72.8-55.9-98.8,0l-361.9,777.6c-36.4,78.3-6.4,199.6,49.4,199.6h303.7h562.3h143.3h259.7h186.3h242h463.6
				h268.6h378.8h40.5h463.6h259.7h186.3h242h295c61.4,0,88.8-142.8,41.1-214.5L8623.2,1020C8599.2,984,8564.9,984,8540.9,1020z"/>
			<path class="st4" d="M8533.7,1007.8l-84.2,126.5c-33.4,50.2-83.4,29.8-102.3-41.9l-185.4-705.1c-24.4-92.8-95.9-92.8-120.3,0
				l-168.7,641.5c-19.8,75.2-73.3,93.2-106.1,35.7l-291.4-510.6c-25.8-45.2-66.2-45.2-91.9,0l-191.4,335.3
				c-34.5,60.4-91.1,36.9-108.3-45l-71-337.8c-19.9-94.6-89.4-107.1-118.8-21.4v0c-24.4,71.1-79.2,77.4-108.1,12.4L6589.9,57
				c-26.8-60.1-76.5-60.1-103.2,0L5990,1173c-23.7,53.4-66.5,60.4-95,15.6l-111.7-176c-25-39.3-61.7-39.3-86.7,0l-71.2,112.2
				c-31.7,49.8-79.9,34.8-101-31.6l-308.2-970.6c-25.9-81.4-89.5-81.4-115.3,0l-156.1,491.5c-23.2,73.2-78.4,82.4-108.3,18.1
				L4774,497.8c-26.7-57.3-74.7-57.3-101.3,0l-371.1,797.4c-37.3,80.3-6.5,204.6,50.7,204.6h311.4h576.7h146.9h266.3h191h248.2
				h475.4h275.5H7232h41.6H7749h266.3h191h248.2H8757c63,0,91.1-146.5,42.2-219.9L8618,1007.8
				C8593.5,970.9,8558.3,970.9,8533.7,1007.8z"/>
		</g>
	</g>
	<g>
		<defs>
			<rect id="SVGID_3_" transform="matrix(-1 -1.224647e-16 1.224647e-16 -1 4648.6958 1258.4348)" width="4648.7" height="1258.4"/>
		</defs>
		<clipPath id="SVGID_4_">
			<use xlink:href="#SVGID_3_"  style="overflow:visible;"/>
		</clipPath>
		<g class="st5">
			<path class="st2" d="M317.5,1033.1l79.8,120c31.7,47.7,79.1,28.2,97-39.8l175.9-668.9c23.2-88.1,90.9-88.1,114.1,0l160,608.5
				c18.8,71.3,69.5,88.4,100.7,33.9l276.4-484.3c24.5-42.9,62.8-42.9,87.2,0l181.5,318.1c32.7,57.3,86.4,35,102.7-42.7l67.4-320.5
				c18.9-89.7,84.8-101.6,112.7-20.3l0,0c23.1,67.5,75.1,73.5,102.5,11.8l185.9-417.7c25.4-57,72.6-57,97.9,0l471.2,1058.7
				c22.5,50.6,63.1,57.3,90.1,14.8l106-166.9c23.7-37.3,58.5-37.3,82.2,0l67.6,106.4c30,47.3,75.8,33,95.8-29.9l292.3-920.7
				c24.5-77.2,84.9-77.2,109.4,0l148,466.3c22,69.4,74.4,78.1,102.8,17.1l59.3-127.5c25.3-54.4,70.8-54.4,96.1,0l352,756.4
				c35.4,76.1,6.2,194.1-48.1,194.1h-295.4h-547h-139.4h-252.6h-181.2h-235.4h-451h-261.3h-368.5h-39.4h-451H809.3H628.1H392.7h-287
				c-59.7,0-86.4-138.9-40-208.6l171.8-258.2C260.8,998,294.2,998,317.5,1033.1z"/>
			<path class="st3" d="M325.2,1020l82.1,123.4c32.6,49,81.4,29,99.7-40.9l180.8-687.6c23.8-90.5,93.5-90.5,117.3,0l164.5,625.6
				c19.3,73.3,71.5,90.9,103.5,34.8l284.1-497.9c25.1-44.1,64.5-44.1,89.7,0l186.6,327c33.6,58.9,88.8,36,105.6-43.9l69.3-329.5
				c19.4-92.3,87.2-104.5,115.9-20.9l0,0c23.8,69.4,77.2,75.5,105.4,12.1l191.1-429.4c26.1-58.6,74.6-58.6,100.7,0l484.3,1088.3
				c23.2,52,64.9,58.9,92.6,15.2l109-171.6c24.4-38.4,60.2-38.4,84.5,0l69.5,109.4c30.9,48.6,77.9,33.9,98.5-30.8l300.5-946.5
				c25.2-79.4,87.2-79.4,112.5,0l152.2,479.3c22.6,71.3,76.5,80.3,105.6,17.6l61-131.1c26-55.9,72.8-55.9,98.8,0l361.9,777.6
				c36.4,78.3,6.4,199.6-49.4,199.6h-303.7h-562.3h-143.3h-259.7h-186.3h-242H2242h-268.6h-378.8H1554h-463.6H830.7H644.5h-242h-295
				c-61.4,0-88.8-142.8-41.1-214.5L243,1020C266.9,984,301.2,984,325.2,1020z"/>
			<path class="st4" d="M332.4,1007.8l84.2,126.5c33.4,50.2,83.4,29.8,102.3-41.9l185.4-705.1c24.4-92.8,95.9-92.8,120.3,0
				l168.7,641.5c19.8,75.2,73.3,93.2,106.1,35.7l291.4-510.6c25.8-45.2,66.2-45.2,91.9,0L1674,889.2c34.5,60.4,91.1,36.9,108.3-45
				l71-337.8c19.9-94.6,89.4-107.1,118.8-21.4l0,0c24.4,71.1,79.2,77.4,108.1,12.4l196-440.4c26.8-60.1,76.5-60.1,103.2,0
				l496.7,1116c23.7,53.4,66.5,60.4,95,15.6l111.7-176c25-39.3,61.7-39.3,86.7,0l71.2,112.2c31.7,49.8,79.9,34.8,101-31.6
				l308.2-970.6c25.9-81.4,89.5-81.4,115.3,0l156.1,491.5c23.2,73.2,78.4,82.4,108.3,18.1l62.5-134.4c26.7-57.3,74.7-57.3,101.3,0
				l371.1,797.4c37.3,80.3,6.5,204.6-50.7,204.6h-311.4h-576.7h-146.9h-266.3h-191h-248.2H2298h-275.5h-388.4h-41.6h-475.4H850.8
				h-191H411.7H109.1c-63,0-91.1-146.5-42.2-219.9l181.1-272.2C272.6,970.9,307.8,970.9,332.4,1007.8z"/>
		</g>
	</g>
</g>
</svg>
