<svg id="Layer_1" data-name="Layer 1" xmlns="http://www.w3.org/2000/svg" viewBox="0 0 537.62 544.85"><defs><style>.cls-1,.cls-4,.cls-5{fill:#ef4423;}.cls-1{opacity:0.45;}.cls-2{fill:#b81e6f;}.cls-3,.cls-5{opacity:0.56;}.cls-6,.cls-7,.cls-8,.cls-9{fill:none;stroke-miterlimit:10;}.cls-6{stroke:#b81e6f;stroke-width:13px;}.cls-7,.cls-8,.cls-9{stroke:#fff;}.cls-7{stroke-width:3px;}.cls-8{stroke-width:2px;}</style></defs><polygon class="cls-1" points="22.51 280.9 83.72 112.71 238.73 23.22 414.99 54.3 530.04 191.41 530.04 370.39 414.99 507.49 238.73 538.57 83.72 449.08 22.51 280.9"/><path class="cls-2" d="M515.6,392.83h0L509,398.38a2.71,2.71,0,0,1-4.29-2.94l4.18-13.4,14.8-49.45a2.75,2.75,0,0,0,.11-1l-2.73-34.08a1.7,1.7,0,0,1,0-.22V273.19a2.73,2.73,0,0,0-2.7-2.75h-3.3a2.73,2.73,0,0,1-2.7-2.75v-2.6a2.69,2.69,0,0,0-4.35-2.17l-6.21,4.95a2.73,2.73,0,0,1-1.27.55l-12.29,1.84a2.69,2.69,0,0,1-2.21-.7l-14.49-13.43a3,3,0,0,1-.39-.47l-18.3-26.76a2.82,2.82,0,0,1-.42-2.14l2.68-13a2.82,2.82,0,0,0-.31-1.95l-7.75-13.57a2.73,2.73,0,0,1-.35-1.61L448,181.41a2.7,2.7,0,0,1,.33-1.12l6.87-12.39a2.85,2.85,0,0,0,.29-1.92l-3.12-14.93a2.77,2.77,0,0,1,.06-1.4l1-3.2a2.69,2.69,0,0,1,3.6-1.71l2.54,1.06a2.67,2.67,0,0,0,3.47-1.4l1.49-3.34a2.68,2.68,0,0,1,3.08-1.53l9.91,2.39a2.66,2.66,0,0,1,1.72,1.32L482.4,149a2.7,2.7,0,0,0,2.35,1.39,2.76,2.76,0,0,0,2.08-4.5l-.35-.43,2-1.65c18.74,23.29,35.75,44.84,43.09,54.06,2.37,3,.62,141.89.12,173.94C531.58,375.9,516.11,392.32,515.6,392.83Z" transform="translate(-6.94 -6.58)"/><path class="cls-2" d="M488.44,143.76l-2,1.65-22.94-28.27a2.68,2.68,0,0,0-3-.82l-5.65,2.18a2.77,2.77,0,0,0-1.52,3.66l4.86,11.55a2.76,2.76,0,0,1-2,3.79l-4.32.79-6.66,1.42a2.65,2.65,0,0,1-2.71-1.05L430,121.55a2.76,2.76,0,0,1,1.83-4.37l2.36-.3a2.76,2.76,0,0,0,1.16-5l-8.78-5.9a2.78,2.78,0,0,1-.61-4L429,98a2.8,2.8,0,0,0,.46-2.59l-4.5-14a2.71,2.71,0,0,0-2.56-1.9h-9.06a3,3,0,0,1-.78-.11,2.46,2.46,0,0,1-.71-.35L388.3,53.19c-.7-.77,17.05,1.38,30.18,9.29C425.84,66.91,459.23,107.44,488.44,143.76Z" transform="translate(-6.94 -6.58)"/><path class="cls-2" d="M402.48,310.87v14.71a1.63,1.63,0,0,1-.45,1.13l-19.08,20a1.69,1.69,0,0,0-.4.73l-9.08,37a1.64,1.64,0,0,1-1,1.15l-30.12,10.56a1.6,1.6,0,0,0-1.05,1.26l-2.35,14.39a1.65,1.65,0,0,1-.56,1l-10.91,9.1a1.8,1.8,0,0,0-.2.19l-9.05,10.76a1.61,1.61,0,0,1-.6.44l-8.12,3.41a1.57,1.57,0,0,0-.66.51l-7,9.33a1.67,1.67,0,0,1-.81.58l-9.35,2.82a1.6,1.6,0,0,0-1,.88l-3.36,7.49a1.57,1.57,0,0,1-.44.58l-7.19,5.93a1.62,1.62,0,0,0,1,2.87,1.6,1.6,0,0,1,1.59,1.61,1.62,1.62,0,0,1-.16.7l-5.51,11.71a1.64,1.64,0,0,0,.13,1.63l7,10.16a1.62,1.62,0,0,1-1.65,2.51l-18.93-4.28a1.65,1.65,0,0,1-.89-.56L246,470.49a1.64,1.64,0,0,1,.28-2.31l7.86-6a1.63,1.63,0,0,0,.32-2.25l-7.58-10.46a1.56,1.56,0,0,1-.31-1.06l5.12-79.33a1.61,1.61,0,0,0-.61-1.38l-27.26-21.6a1.64,1.64,0,0,1-.4-.47L201,306.31a1.63,1.63,0,0,1,0-1.6l16.45-29.45a1.65,1.65,0,0,0,.16-1.19l-4.74-19.33a1.58,1.58,0,0,0-2.84-.53l-4.17,6.08a1.57,1.57,0,0,1-2.47.15l-23.88-26.8a1.66,1.66,0,0,0-.88-.5l-17.49-3.37a1.6,1.6,0,0,1-1.29-1.59V219a1.59,1.59,0,0,0-1.06-1.51l-33.42-12a1.62,1.62,0,0,1-1-1.44l-1.57-29.74a1.58,1.58,0,0,0-3.1-.37l-1,3.6a1.58,1.58,0,0,1-3.11-.36l-2-36.82a1.63,1.63,0,0,1,.32-1.07l26.82-36.09a1.62,1.62,0,0,1,1.27-.64h9.29a1.59,1.59,0,0,0,1.57-1.41l2.92-23.67a1.66,1.66,0,0,1,1-1.31l74.22-32.68.91,2.15,5.28,4.84a1.7,1.7,0,0,1,.54,1.24,1.66,1.66,0,0,1-1.15,1.59,1.66,1.66,0,0,0,.42,3.24l2,.09a1.62,1.62,0,0,0,1.58-1l2.37-5.91a1.66,1.66,0,0,1,1.17-1l1.34-.29a1.64,1.64,0,0,1,2,1.48l.53,6.26A1.62,1.62,0,0,0,250,57.52l4.4-1.55a1.66,1.66,0,0,0,1.09-1.57V51.62a1.65,1.65,0,0,1,2-1.63l7.29,1.62a1.52,1.52,0,0,0,.6,0l1.82-.29a1.67,1.67,0,0,0,.56-3.09l-1.62-.92a1.68,1.68,0,0,1-.79-1.82l1.16-5.22.75-2.69,3.21.93c.15,0,1.94.14,2.09.17l70.72,14.14a1.62,1.62,0,0,1,.49,3l-13.95,7.9a1.62,1.62,0,0,0-.81,1.58l.67,6.84a1.59,1.59,0,0,1-2.2,1.65L302.31,62.89a1.67,1.67,0,0,1-.79-.74l-6.58-12.94a1.6,1.6,0,0,0-1.45-.87l-12.35.36a1.62,1.62,0,0,0-.84,3l11.51,7.93a1.63,1.63,0,0,1-.12,2.75l-10.65,6a1.62,1.62,0,0,0-.8,1.15l-14.73-4.84a2.16,2.16,0,0,1-.44-3.79l2-1.34a2.16,2.16,0,0,0-.66-3.86l-2.83-.72a2.08,2.08,0,0,0-1.68.29l-5.25,3.57a2.13,2.13,0,0,1-.5.25l-6,2-24.19,8.21a2.12,2.12,0,0,0-1.24,1.11l-2.43,5.18a2.17,2.17,0,0,0,1.19,3l11.48,4.15a2.16,2.16,0,0,1,1.28,2.73l-.86,2.47a2.18,2.18,0,0,0,.78,2.47l3.39,2.39a2.1,2.1,0,0,0,3.3-1.75V88.79a2.16,2.16,0,0,1,.94-1.79l9.42-6.3a2.16,2.16,0,0,0-.12-3.65,2.18,2.18,0,0,1-.74-3l3.45-5.6a2.07,2.07,0,0,1,1.78-1h6.15a2.1,2.1,0,0,1,1.66.83l4.24,5.55,2.21,2.63a2.08,2.08,0,0,0,3.43-.35l5-6.62a1.64,1.64,0,0,0,.65,1.58l25,18a1.63,1.63,0,0,1,.11,2.54L297.51,99a1.56,1.56,0,0,1-1,.37l-12.23.47a1.6,1.6,0,0,0-1.44,1.1L281,106.67a1.64,1.64,0,0,0,1.14,2.1l5.95,1.39a1.63,1.63,0,0,1,.09,3.13l-15.43,4.59-.28.06-7.67.82a1.63,1.63,0,0,0-1.3,2.23l2.12,5.22a1.62,1.62,0,0,1-1.15,2.2l-15.09,3.17a1.58,1.58,0,0,0-1.11.88l-6.74,14.23a1.66,1.66,0,0,1-.68.71l-19.12,10.49a1.63,1.63,0,0,0-.84,1.31l-1.36,19.92a1.58,1.58,0,0,1-2.06,1.42l-7.22-2.32a1.58,1.58,0,0,1-1-1l-3.06-9.35a1.59,1.59,0,0,0-1.4-1.1l-14.25-1a1.51,1.51,0,0,0-.66.11l-7.9,3-.25.08-17.6,3.49a1.59,1.59,0,0,0-1.26,1.28L161,183.57a1.84,1.84,0,0,1-.17.48L156,192.81a1.57,1.57,0,0,0-.14,1.22l2.6,9.28a1.59,1.59,0,0,0,1.61,1.17l7.25-.42a1.56,1.56,0,0,0,1.3-.83l5.85-11a1.59,1.59,0,0,1,1.58-.84L191,193.17a1.62,1.62,0,0,1,1.36,2l-4.5,18.78a1.63,1.63,0,0,0,.81,1.82l11.08,5.87a1.63,1.63,0,0,1,.86,1.44v18.66a1.6,1.6,0,0,0,1.58,1.61H215a1.55,1.55,0,0,1,1.21.58l3.41,4.17a1.57,1.57,0,0,0,2.52-.11l10.21-14.91a1.57,1.57,0,0,1,1.64-.65l36.31,8.22a1.66,1.66,0,0,0,.44,0l16.84-1a1.59,1.59,0,0,1,1.18.44l17.39,16.7a1.53,1.53,0,0,0,.87.43l17.09,2.48a1.64,1.64,0,0,1,1.07.67l17.59,25.3a1.57,1.57,0,0,0,.71.57l58,23.12A1.59,1.59,0,0,1,402.48,310.87Z" transform="translate(-6.94 -6.58)"/><path class="cls-2" d="M231.81,526.77l11.41,1a1.49,1.49,0,0,0,1.13-.4l3-2.85a1.45,1.45,0,0,1,2,0l1.6,1.53a1.46,1.46,0,0,0,1.25.4l4.56-.75a.86.86,0,0,1,.23,0H271.2a1.51,1.51,0,0,0,.89-.3l1.36-1a1.48,1.48,0,0,1,1.93.14l1.77,1.81a1.51,1.51,0,0,0,1.1.44l1.41-.06a1.5,1.5,0,0,0,1.22-2.26l-2-3.48a1.56,1.56,0,0,1-.2-.82l.12-2.83a1.5,1.5,0,0,1,.93-1.34l8.59-3.43a1.4,1.4,0,0,1,.53-.11h1a1.51,1.51,0,0,1,.84,2.74L287,517.77a1.52,1.52,0,0,0,0,2.44l6.18,4.63a1.52,1.52,0,0,1,.16,2.27l-4,4.1a1.46,1.46,0,0,1-.78.42l-40.91,7.61a1.54,1.54,0,0,1-1-.19l-15.59-9.49a1.51,1.51,0,0,1,.65-2.79h.23Z" transform="translate(-6.94 -6.58)"/><g class="cls-3"><path class="cls-4" d="M520.6,389.79h0L514,395.34a2.7,2.7,0,0,1-4.29-2.94l4.18-13.4,14.8-49.45a2.72,2.72,0,0,0,.11-1l-2.73-34.08a1.93,1.93,0,0,1,0-.23V270.15a2.73,2.73,0,0,0-2.7-2.75h-3.3a2.73,2.73,0,0,1-2.7-2.75v-2.59a2.69,2.69,0,0,0-4.35-2.17l-6.21,4.95a3,3,0,0,1-1.27.55l-12.29,1.83a2.69,2.69,0,0,1-2.21-.69l-14.49-13.44a2.57,2.57,0,0,1-.39-.47l-18.3-26.75a2.83,2.83,0,0,1-.42-2.14l2.68-13a2.83,2.83,0,0,0-.31-1.95l-7.75-13.56a2.78,2.78,0,0,1-.35-1.62L453,178.37a2.74,2.74,0,0,1,.33-1.12l6.87-12.38a2.88,2.88,0,0,0,.29-1.93L457.37,148a2.77,2.77,0,0,1,.06-1.4l1-3.19a2.7,2.7,0,0,1,3.6-1.72l2.54,1.06a2.67,2.67,0,0,0,3.47-1.4l1.49-3.33a2.68,2.68,0,0,1,3.08-1.54l9.91,2.39a2.67,2.67,0,0,1,1.72,1.33l3.17,5.7a2.69,2.69,0,0,0,2.35,1.4,2.76,2.76,0,0,0,2.08-4.51l-.35-.42,2-1.65c18.74,23.28,35.75,44.83,43.09,54.05,2.37,3,.62,141.89.12,174C536.58,372.86,521.11,389.28,520.6,389.79Z" transform="translate(-6.94 -6.58)"/><path class="cls-4" d="M493.44,140.73l-2,1.65L468.54,114.1a2.68,2.68,0,0,0-3-.81l-5.65,2.18a2.76,2.76,0,0,0-1.52,3.65l4.86,11.55a2.76,2.76,0,0,1-2,3.79l-4.32.8-6.66,1.41a2.64,2.64,0,0,1-2.71-1L435,118.51a2.76,2.76,0,0,1,1.83-4.37l2.36-.29a2.76,2.76,0,0,0,1.16-5l-8.78-5.91a2.78,2.78,0,0,1-.61-4L434,95a2.78,2.78,0,0,0,.46-2.58l-4.5-14a2.7,2.7,0,0,0-2.56-1.89h-9.06a2.64,2.64,0,0,1-.78-.12,2.77,2.77,0,0,1-.71-.34L393.3,50.16c-.7-.78,17.05,1.37,30.18,9.29C430.84,63.88,464.23,104.41,493.44,140.73Z" transform="translate(-6.94 -6.58)"/></g><g class="cls-3"><path class="cls-4" d="M407.48,307.83v14.72a1.67,1.67,0,0,1-.45,1.13L388,343.62a1.69,1.69,0,0,0-.4.73l-9.08,37a1.63,1.63,0,0,1-1,1.14L347.33,393a1.6,1.6,0,0,0-1.05,1.26l-2.35,14.4a1.65,1.65,0,0,1-.56,1l-10.91,9.1a1.8,1.8,0,0,0-.2.19l-9.05,10.76a1.76,1.76,0,0,1-.6.45l-8.12,3.4a1.52,1.52,0,0,0-.66.52l-7,9.33a1.65,1.65,0,0,1-.81.57l-9.35,2.82a1.61,1.61,0,0,0-1,.89l-3.36,7.48a1.49,1.49,0,0,1-.44.58l-7.19,5.93a1.62,1.62,0,0,0,1,2.87,1.61,1.61,0,0,1,1.43,2.31l-5.51,11.72a1.64,1.64,0,0,0,.13,1.63l7,10.15a1.62,1.62,0,0,1-1.65,2.51L268.2,488.6a1.65,1.65,0,0,1-.89-.56L251,467.46a1.65,1.65,0,0,1,.28-2.32l7.86-6a1.63,1.63,0,0,0,.32-2.25l-7.58-10.46a1.55,1.55,0,0,1-.31-1.06L256.64,366a1.61,1.61,0,0,0-.61-1.38l-27.26-21.6a1.52,1.52,0,0,1-.4-.47L206,303.28a1.63,1.63,0,0,1,0-1.6l16.45-29.46a1.64,1.64,0,0,0,.16-1.19l-4.74-19.32a1.58,1.58,0,0,0-2.84-.53l-4.17,6.07a1.57,1.57,0,0,1-2.47.15l-23.88-26.8a1.73,1.73,0,0,0-.88-.5l-17.49-3.37a1.59,1.59,0,0,1-1.29-1.59v-9.2a1.59,1.59,0,0,0-1.06-1.52l-33.42-12a1.59,1.59,0,0,1-1-1.44l-1.57-29.74a1.58,1.58,0,0,0-3.1-.36l-1,3.59a1.58,1.58,0,0,1-3.11-.36l-2-36.82a1.65,1.65,0,0,1,.32-1.07l26.82-36.08a1.59,1.59,0,0,1,1.27-.64h9.29a1.6,1.6,0,0,0,1.57-1.42l2.92-23.67a1.66,1.66,0,0,1,1-1.31L235.87,40.4l.91,2.15,5.28,4.85a1.67,1.67,0,0,1-.61,2.82,1.67,1.67,0,0,0,.42,3.25l2,.08a1.62,1.62,0,0,0,1.58-1l2.37-5.91a1.68,1.68,0,0,1,1.17-1l1.34-.29a1.65,1.65,0,0,1,2,1.49l.53,6.25A1.63,1.63,0,0,0,255,54.49l4.4-1.56a1.66,1.66,0,0,0,1.09-1.57V48.58a1.65,1.65,0,0,1,2-1.63l7.29,1.62a1.52,1.52,0,0,0,.6,0l1.82-.29a1.67,1.67,0,0,0,.56-3.08l-1.62-.93a1.67,1.67,0,0,1-.79-1.81l1.16-5.23.75-2.69,3.21.93c.15,0,1.94.14,2.09.17L348.29,49.8a1.63,1.63,0,0,1,.49,3L334.83,60.7a1.64,1.64,0,0,0-.81,1.58l.67,6.84a1.59,1.59,0,0,1-2.2,1.65L307.31,59.85a1.62,1.62,0,0,1-.79-.74l-6.58-12.93a1.61,1.61,0,0,0-1.45-.88l-12.35.37a1.62,1.62,0,0,0-.84,2.95l11.51,7.93a1.63,1.63,0,0,1-.12,2.75l-10.65,6a1.66,1.66,0,0,0-.8,1.15L270.51,61.6a2.16,2.16,0,0,1-.44-3.79l2-1.35a2.16,2.16,0,0,0-.66-3.86l-2.83-.72a2.11,2.11,0,0,0-1.68.29l-5.25,3.57a2.13,2.13,0,0,1-.5.25l-6,2-24.19,8.21a2.12,2.12,0,0,0-1.24,1.11l-2.43,5.18a2.16,2.16,0,0,0,1.19,3l11.48,4.15a2.16,2.16,0,0,1,1.28,2.73l-.86,2.47a2.17,2.17,0,0,0,.78,2.47l3.39,2.4a2.1,2.1,0,0,0,3.3-1.75V85.76a2.16,2.16,0,0,1,.94-1.8l9.42-6.3a2.16,2.16,0,0,0-.12-3.65,2.17,2.17,0,0,1-.74-3l3.45-5.6a2.05,2.05,0,0,1,1.78-1h6.15a2.09,2.09,0,0,1,1.66.82l4.24,5.55,2.21,2.63a2.08,2.08,0,0,0,3.43-.35l5-6.62a1.63,1.63,0,0,0,.65,1.58l25,18A1.64,1.64,0,0,1,311,88.6l-8.46,7.33a1.51,1.51,0,0,1-1,.38l-12.23.47a1.59,1.59,0,0,0-1.44,1.1L286,103.63a1.63,1.63,0,0,0,1.14,2.1l5.95,1.39a1.63,1.63,0,0,1,.09,3.13l-15.43,4.6-.28.06-7.67.81a1.63,1.63,0,0,0-1.3,2.23l2.12,5.23a1.63,1.63,0,0,1-1.15,2.2l-15.09,3.16a1.6,1.6,0,0,0-1.11.88l-6.74,14.23a1.61,1.61,0,0,1-.68.71l-19.12,10.49a1.65,1.65,0,0,0-.84,1.32l-1.36,19.91a1.59,1.59,0,0,1-2.06,1.43l-7.22-2.33a1.59,1.59,0,0,1-1-1l-3.06-9.36a1.61,1.61,0,0,0-1.4-1.1l-14.25-1a1.66,1.66,0,0,0-.66.1l-7.9,3-.25.09-17.6,3.48a1.59,1.59,0,0,0-1.26,1.28L166,180.53a1.72,1.72,0,0,1-.17.48L161,189.77a1.57,1.57,0,0,0-.14,1.22l2.6,9.28a1.59,1.59,0,0,0,1.61,1.17l7.25-.42a1.56,1.56,0,0,0,1.3-.83l5.85-11a1.59,1.59,0,0,1,1.58-.84L196,190.14a1.61,1.61,0,0,1,1.36,2l-4.5,18.78a1.65,1.65,0,0,0,.81,1.83l11.08,5.86a1.63,1.63,0,0,1,.86,1.44v18.66a1.6,1.6,0,0,0,1.58,1.61H220a1.55,1.55,0,0,1,1.21.58l3.41,4.18a1.57,1.57,0,0,0,2.52-.12L237.31,230a1.57,1.57,0,0,1,1.64-.65l36.31,8.22a1.66,1.66,0,0,0,.44,0l16.84-1a1.59,1.59,0,0,1,1.18.44l17.39,16.7a1.53,1.53,0,0,0,.87.43l17.09,2.49a1.59,1.59,0,0,1,1.07.66l17.59,25.3a1.51,1.51,0,0,0,.71.57l58,23.12A1.61,1.61,0,0,1,407.48,307.83Z" transform="translate(-6.94 -6.58)"/></g><path class="cls-5" d="M236.81,523.73l11.41,1a1.48,1.48,0,0,0,1.13-.39l3-2.85a1.45,1.45,0,0,1,2,0L256,523a1.49,1.49,0,0,0,1.25.39l4.56-.75.23,0H276.2a1.45,1.45,0,0,0,.89-.3l1.36-1a1.45,1.45,0,0,1,1.93.14l1.77,1.8a1.47,1.47,0,0,0,1.1.44l1.41-.06a1.5,1.5,0,0,0,1.22-2.26l-2-3.47a1.59,1.59,0,0,1-.2-.83l.12-2.83a1.51,1.51,0,0,1,.93-1.34l8.59-3.43a1.39,1.39,0,0,1,.53-.1h1a1.5,1.5,0,0,1,.84,2.73L292,514.73a1.52,1.52,0,0,0,0,2.44l6.18,4.63a1.53,1.53,0,0,1,.16,2.28l-4,4.1a1.44,1.44,0,0,1-.78.41l-40.91,7.61a1.48,1.48,0,0,1-1-.19l-15.59-9.49a1.51,1.51,0,0,1,.65-2.79h.23Z" transform="translate(-6.94 -6.58)"/><path class="cls-6" d="M33.6,276.08,86.52,130.69a33.32,33.32,0,0,1,14.65-17.46l134-77.37a33.36,33.36,0,0,1,22.45-3.95L410,58.77a33.33,33.33,0,0,1,19.74,11.4L529.19,188.7A33.34,33.34,0,0,1,537,210.12V364.84a33.34,33.34,0,0,1-7.79,21.42L429.73,504.79A33.32,33.32,0,0,1,410,516.18L257.62,543.05a33.31,33.31,0,0,1-22.45-4l-134-77.36a33.36,33.36,0,0,1-14.65-17.46L33.6,298.87A33.31,33.31,0,0,1,33.6,276.08Z" transform="translate(-6.94 -6.58)"/><path class="cls-7" d="M27.13,276.08,81.56,126.52a33.36,33.36,0,0,1,14.65-17.46L234,29.49a33.33,33.33,0,0,1,22.45-4L413.23,53.17A33.34,33.34,0,0,1,433,64.56l102.3,121.92a33.31,33.31,0,0,1,7.8,21.42V367.06a33.28,33.28,0,0,1-7.8,21.41L433,510.39a33.31,33.31,0,0,1-19.74,11.4L256.49,549.43a33.33,33.33,0,0,1-22.45-4L96.21,465.89a33.36,33.36,0,0,1-14.65-17.46L27.13,298.87A33.31,33.31,0,0,1,27.13,276.08Z" transform="translate(-6.94 -6.58)"/><path class="cls-8" d="M17.18,271,72.82,118.19a33.28,33.28,0,0,1,14.65-17.46L228.34,19.4a33.29,33.29,0,0,1,22.44-4L411,43.68a33.3,33.3,0,0,1,19.74,11.4L535.27,179.69a33.28,33.28,0,0,1,7.8,21.41V363.77a33.28,33.28,0,0,1-7.8,21.41L430.71,509.79A33.3,33.3,0,0,1,411,521.19L250.78,549.43a33.29,33.29,0,0,1-22.44-4L87.47,464.14a33.28,33.28,0,0,1-14.65-17.46L17.18,293.83A33.31,33.31,0,0,1,17.18,271Z" transform="translate(-6.94 -6.58)"/><path class="cls-9" d="M9.45,267.11,66,111.7A33.36,33.36,0,0,1,80.67,94.24L223.9,11.55a33.31,33.31,0,0,1,22.45-4L409.22,36.31A33.29,33.29,0,0,1,429,47.7L535.27,174.4a33.29,33.29,0,0,1,7.8,21.42V361.2a33.29,33.29,0,0,1-7.8,21.42L429,509.32a33.29,33.29,0,0,1-19.74,11.39L246.35,549.43a33.31,33.31,0,0,1-22.45-4L80.67,462.78A33.36,33.36,0,0,1,66,445.32L9.45,289.91A33.33,33.33,0,0,1,9.45,267.11Z" transform="translate(-6.94 -6.58)"/></svg>