<svg id="Layer_1" data-name="Layer 1" xmlns="http://www.w3.org/2000/svg" viewBox="0 0 242.25 287.82"><defs><style>.cls-1,.cls-4{fill:#ef4423;}.cls-1{opacity:0.5;}.cls-2,.cls-5,.cls-6,.cls-7{fill:none;stroke-miterlimit:10;}.cls-2{stroke:#b81e6f;stroke-width:18px;}.cls-3{fill:#b81e6f;}.cls-4{opacity:0.6;}.cls-5,.cls-6,.cls-7{stroke:#fff;}.cls-5{stroke-width:3px;}.cls-6{stroke-width:2px;}</style></defs><path class="cls-1" d="M36.65,80.26c11-5.59,44.74-8,49.18-50.52.49-4.73,59.74-7.65,116.34-1.52,6.63.71-8.6,44,51.66,50,5.28.53,6.78,108.52-23.48,158.09-11.62,19-86.09,57.39-86.09,57.39-28.65-10.67-54.53-18.91-84-56.22C32.09,201.85,27.9,84.71,36.65,80.26Z" transform="translate(-23.57 -15.74)"/><path class="cls-2" d="M36.65,80.26c11-5.59,44.74-8,49.18-50.52.49-4.73,59.74-7.65,116.34-1.52,6.63.71-8.6,44,51.66,50,5.28.53,6.78,108.52-23.48,158.09-11.62,19-86.09,57.39-86.09,57.39-28.65-10.67-54.53-18.91-84-56.22C32.09,201.85,27.9,84.71,36.65,80.26Z" transform="translate(-23.57 -15.74)"/><path class="cls-3" d="M55,197.57C100.11,103.88,245,83.74,250.87,88.17c6.14,4.61-6,129.56-25,145.57-28.86,24.42-62.61,47.74-81.22,54.26-7.3,2.56-69-36.52-84.95-59.74C48,211.15,51.28,205.4,55,197.57Z" transform="translate(-23.57 -15.74)"/><path class="cls-4" d="M55,188.57C100.11,94.88,245,74.74,250.87,79.17c6.14,4.61-6,129.56-25,145.57-28.86,24.42-62.61,47.74-81.22,54.26-7.3,2.56-69-36.52-84.95-59.74C48,202.15,51.28,196.4,55,188.57Z" transform="translate(-23.57 -15.74)"/><path class="cls-5" d="M70.7,104.35c0,55.69-19.13,119.25,71.47,159.13" transform="translate(-23.57 -15.74)"/><path class="cls-6" d="M65.2,92.12c0,60-20.59,128.42,77,171.36" transform="translate(-23.57 -15.74)"/><path class="cls-7" d="M59.13,78.61c0,64.7-22.22,138.54,83,184.87" transform="translate(-23.57 -15.74)"/></svg>